<svg xmlns="http://www.w3.org/2000/svg" width="256" height="256" viewBox="0 0 256 256" fill="none">
<path d="M 127.11,249 C 193.88,249 248.5,195.21 248.5,128 C 248.5,60.79 194.6,7 127.11,7 C 59.62,7 6.78,60.79 6.78,128 C 6.78,195.21 59.94,249 127.11,249 Z" fill="url(#paint0_linear_132_100)"/>
<path d="M 126.63,237.44 C 187.96,237.44 237.5,187.24 237.5,128.16 C 237.5,69.07 188.28,17.82 126.63,17.82 C 66.25,17.82 17.69,68.72 17.69,128.16 C 17.69,187.6 66.57,237.44 126.63,237.44 Z" fill="#15137E"/>
<path d="M 173.41,144.8 V 184.77 C 173.41,188.04 171.15,188.91 169.52,188.91 H 86.9 C 84.19,188.91 82.55,187.12 82.55,184.77 V 125.81 C 92.05,120.84 101.4,118.92 110.95,118.92 C 122.84,118.92 132.18,122.23 146.38,126.36 L 150.34,121.4 C 137.31,117.16 127.08,113.33 111.31,113.33 C 78.96,113.33 51.82,134.26 43.08,166.18 C 42.21,169.59 48.11,170.26 48.63,167.21 C 53.72,152.41 61.25,140.78 71.61,132.87 V 185.29 C 71.61,193.32 78.71,199.07 84.78,198.74 H 170.04 C 178.94,198.74 184.22,190.48 183.99,184.77 V 145.48 C 180.46,145.93 177.06,145.71 173.41,144.8 Z" fill="url(#paint1_linear_132_100)"/>
<path d="M 182.42,85.22 L 155.63,58.36 C 154.22,57.08 153.07,56.91 151.09,56.91 H 85.74 C 78.81,56.91 71.61,62.71 71.61,70.38 V 118.81 C 75.2,116.41 77.81,115.16 82.29,113.51 V 71.92 C 82.29,69.21 83.92,67.58 86.64,67.58 H 146.9 V 82.77 C 146.9,90.12 151.71,93.76 158.64,93.76 H 173.25 V 95.78 L 182.42,86.6 C 183.47,85.83 183.32,85.88 182.42,85.22 Z" fill="url(#paint2_linear_132_100)"/>
<path d="M 210.97,76.06 C 206.32,73.17 197.72,79.83 184.22,93.81 L 126.63,155.08 L 111.06,139.51 C 108.11,136.56 104.94,138.04 103.89,139.41 C 102.1,141.52 102.31,145.06 104.92,147.41 L 123.61,166.44 C 126.11,168.65 128.77,167.68 129.92,166.21 L 199.01,101.31 C 203.87,107.91 204.92,115.77 202.85,122.38 C 199.01,133.15 187.81,135.86 173.15,132.82 L 168.76,137.22 C 183.79,143.88 201.48,137.53 208.03,124.91 C 213.72,113.18 207.71,102.03 202.42,96.66 C 209.95,87.93 215.34,80.01 210.97,76.06 Z M 204.13,84.95 C 203.41,87.11 201.95,89.41 199.74,92.07 L 197.67,90.01 C 194.37,88.04 191.21,93.15 193.71,95.36 L 195.92,97.57 C 192.19,101.41 187.28,106.22 185.65,105.06 C 182.69,103.14 188.07,95.62 195.26,88.8 C 200.12,84.54 205.6,81.28 204.13,84.95 Z" fill="url(#paint3_linear_132_100)"/>
<defs>
<linearGradient id="paint0_linear_132_100" x1="43.7399" y1="212.671" x2="212.728" y2="42.9784" gradientUnits="userSpaceOnUse">
<stop stop-color="#522398"/>
<stop offset="0.1185" stop-color="#4E34A5"/>
<stop offset="0.3549" stop-color="#455FB5"/>
<stop offset="0.5742" stop-color="#3C84C6"/>
<stop offset="0.768" stop-color="#369ED2"/>
<stop offset="0.9219" stop-color="#32ADDA"/>
<stop offset="1" stop-color="#30B4DD"/>
</linearGradient>
<linearGradient id="paint1_linear_132_100" x1="63.6047" y1="184.914" x2="168.797" y2="100.891" gradientUnits="userSpaceOnUse">
<stop stop-color="#523BA1"/>
<stop offset="0.1041" stop-color="#4D4BAE"/>
<stop offset="0.313" stop-color="#4176CC"/>
<stop offset="0.5981" stop-color="#30BCEA"/>
<stop offset="0.7101" stop-color="#29DEF7"/>
</linearGradient>
<linearGradient id="paint2_linear_132_100" x1="91.9895" y1="110.615" x2="156.864" y2="51.588" gradientUnits="userSpaceOnUse">
<stop stop-color="#3988C8"/>
<stop offset="0.2791" stop-color="#3699D1"/>
<stop offset="0.6129" stop-color="#33A9DA"/>
<stop offset="0.8116" stop-color="#32B0DE"/>
</linearGradient>
<linearGradient id="paint3_linear_132_100" x1="122.706" y1="157.16" x2="188.172" y2="82.4041" gradientUnits="userSpaceOnUse">
<stop stop-color="#29B6E9"/>
<stop offset="0.2911" stop-color="#27C0EA"/>
<stop offset="0.6156" stop-color="#25C9EB"/>
<stop offset="0.8116" stop-color="#24CCEB"/>
</linearGradient>
</defs>
</svg>